<?xml version="1.0" encoding="UTF-8" standalone="no"?>
<svg
   xmlns:dc="http://purl.org/dc/elements/1.1/"
   xmlns:cc="http://creativecommons.org/ns#"
   xmlns:rdf="http://www.w3.org/1999/02/22-rdf-syntax-ns#"
   xmlns:svg="http://www.w3.org/2000/svg"
   xmlns="http://www.w3.org/2000/svg"
   xmlns:sodipodi="http://sodipodi.sourceforge.net/DTD/sodipodi-0.dtd"
   xmlns:inkscape="http://www.inkscape.org/namespaces/inkscape"
   version="1.1"
   id="svg2"
   xml:space="preserve"
   width="1063.8933"
   height="330.88"
   viewBox="0 0 1063.8933 330.88"
   sodipodi:docname="Democracy22_Logo.svg"
   inkscape:export-filename="/home/herbie/Democracy22_Logo.png"
   inkscape:export-xdpi="12.185686"
   inkscape:export-ydpi="12.185686"
   inkscape:version="1.0.2 (e86c870879, 2021-01-15)"><metadata
     id="metadata8"><rdf:RDF><cc:Work
         rdf:about=""><dc:format>image/svg+xml</dc:format><dc:type
           rdf:resource="http://purl.org/dc/dcmitype/StillImage" /><dc:title></dc:title></cc:Work></rdf:RDF></metadata><defs
     id="defs6" /><sodipodi:namedview
     pagecolor="#ffffff"
     bordercolor="#666666"
     borderopacity="1"
     objecttolerance="10"
     gridtolerance="10"
     guidetolerance="10"
     inkscape:pageopacity="0"
     inkscape:pageshadow="2"
     inkscape:window-width="1678"
     inkscape:window-height="974"
     id="namedview4"
     showgrid="false"
     inkscape:zoom="0.55174705"
     inkscape:cx="563.16214"
     inkscape:cy="116.09126"
     inkscape:window-x="0"
     inkscape:window-y="30"
     inkscape:window-maximized="0"
     inkscape:current-layer="g10" /><g
     id="g10"
     inkscape:groupmode="layer"
     inkscape:label="ink_ext_XXXXXX"
     transform="matrix(1.3333333,0,0,-1.3333333,0,330.88)"><g
       id="g12"
       transform="scale(0.1)"><path
         d="m 1686.91,1807.42 c -47.81,18.86 -83.75,44.06 -107.81,75.62 -24.06,31.54 -36.76,66.18 -38.05,103.9 0,5.86 2.1,10.89 6.34,15.13 4.23,4.22 9.27,6.34 15.13,6.34 h 185.37 c 9.1,0 16.42,-1.14 21.95,-3.42 5.51,-2.29 12.19,-6.67 20,-13.17 18.85,-14.96 42.93,-22.44 72.19,-22.44 22.11,0 39.85,2.44 53.18,7.32 13.33,4.88 20,11.54 20,20 0,11.71 -8.78,20.64 -26.34,26.84 -17.56,6.17 -50.74,12.5 -99.51,19.02 -167.82,22.1 -251.72,93.66 -251.72,214.64 0,43.56 12.52,82.44 37.56,116.59 25.03,34.14 60,60.63 104.88,79.51 44.88,18.86 96.59,28.29 155.13,28.29 61.13,0 114.79,-10.41 160.98,-31.22 46.17,-20.82 81.62,-46.99 106.35,-78.53 24.71,-31.57 37.71,-62.3 39.02,-92.2 0,-5.86 -2.13,-10.9 -6.35,-15.13 -4.23,-4.24 -8.94,-6.33 -14.14,-6.33 h -195.13 c -9.11,0 -16.26,1.12 -21.47,3.4 -5.2,2.28 -11.05,6.35 -17.56,12.2 -13.65,11.71 -30.89,17.57 -51.7,17.57 -31.23,0 -46.83,-9.12 -46.83,-27.33 0,-9.75 7.64,-17.89 22.93,-24.38 15.27,-6.51 43.73,-12.37 85.37,-17.57 65.03,-8.46 117.23,-21.14 156.58,-38.05 39.36,-16.92 67.97,-39.51 85.86,-67.8 17.88,-28.3 26.84,-63.91 26.84,-106.84 0,-46.19 -14.01,-86.68 -41.96,-121.46 -27.97,-34.81 -66.52,-61.64 -115.62,-80.5 -49.11,-18.86 -104.55,-28.29 -166.35,-28.29 -68.94,0 -127.31,9.43 -175.12,28.29"
         style="fill:#392c7f;fill-opacity:1;fill-rule:nonzero;stroke:none"
         id="path14" /><path
         d="m 2409.38,1796.69 c -5.22,5.2 -7.82,11.38 -7.82,18.54 v 446.84 h -161.95 c -7.17,0 -13.34,2.6 -18.54,7.81 -5.21,5.2 -7.8,11.37 -7.8,18.54 v 157.08 c 0,7.14 2.59,13.32 7.8,18.53 5.2,5.2 11.37,7.81 18.54,7.81 h 571.73 c 7.15,0 13.33,-2.61 18.53,-7.81 5.21,-5.21 7.81,-11.39 7.81,-18.53 v -157.08 c 0,-7.17 -2.6,-13.34 -7.81,-18.54 -5.2,-5.21 -11.38,-7.81 -18.53,-7.81 h -161.96 v -446.84 c 0,-7.16 -2.6,-13.34 -7.8,-18.54 -5.21,-5.21 -11.38,-7.8 -18.54,-7.8 h -195.13 c -7.17,0 -13.34,2.59 -18.53,7.8"
         style="fill:#392c7f;fill-opacity:1;fill-rule:nonzero;stroke:none"
         id="path16" /><path
         d="m 3223.06,2186.95 c 14.29,0 25.36,4.71 33.17,14.14 7.8,9.43 11.7,21.3 11.7,35.62 0,14.3 -3.75,26.83 -11.21,37.56 -7.49,10.73 -18.71,16.1 -33.66,16.1 h -71.22 v -103.42 z m -307.34,-390.26 c -5.21,5.2 -7.79,11.38 -7.79,18.54 v 630.27 c 0,7.14 2.58,13.32 7.79,18.53 5.21,5.2 11.38,7.81 18.55,7.81 h 288.79 c 93.66,0 166.82,-20.98 219.52,-62.93 52.67,-41.96 79.02,-100 79.02,-174.15 0,-42.29 -9.43,-79.52 -28.3,-111.71 -18.87,-32.2 -44.55,-58.71 -77.07,-79.51 l 120,-222.46 c 1.95,-3.89 2.93,-7.48 2.93,-10.73 0,-5.85 -2.12,-10.9 -6.34,-15.12 -4.24,-4.23 -9.27,-6.34 -15.12,-6.34 h -200 c -11.71,0 -20.98,2.76 -27.82,8.29 -6.82,5.52 -11.55,11.54 -14.14,18.05 l -83.9,186.35 h -40 v -186.35 c 0,-7.16 -2.61,-13.34 -7.82,-18.54 -5.21,-5.21 -11.38,-7.8 -18.53,-7.8 h -191.22 c -7.17,0 -13.34,2.59 -18.55,7.8"
         style="fill:#392c7f;fill-opacity:1;fill-rule:nonzero;stroke:none"
         id="path18" /><path
         d="m 3967.95,1988.89 c 12.69,13 19.35,32.84 20,59.52 1.3,37.71 1.95,65.37 1.95,82.93 0,18.86 -0.65,45.86 -1.95,80.97 -0.65,26.66 -7.48,46.5 -20.49,59.51 -13.01,13.01 -30.23,19.53 -51.7,19.53 -21.46,0 -38.71,-6.52 -51.72,-19.53 -13,-13.01 -19.84,-32.85 -20.49,-59.51 -0.64,-17.55 -0.97,-44.56 -0.97,-80.97 0,-36.44 0.33,-64.07 0.97,-82.93 0.65,-26.68 7.33,-46.52 20,-59.52 12.7,-13.01 30.08,-19.51 52.21,-19.51 22.1,0 39.51,6.5 52.19,19.51 z m -285.37,-142.44 c -57.89,44.88 -88.79,110.25 -92.69,196.11 -0.65,17.56 -0.97,45.85 -0.97,84.87 0,39.67 0.32,68.62 0.97,86.84 1.96,55.93 16.74,104.06 44.39,144.39 27.64,40.32 65.52,70.89 113.67,91.71 48.12,20.81 104.06,31.22 167.81,31.22 63.73,0 119.67,-10.41 167.8,-31.22 48.14,-20.82 86.01,-51.39 113.67,-91.71 27.63,-40.33 42.44,-88.46 44.39,-144.39 1.29,-36.44 1.95,-65.38 1.95,-86.84 0,-21.45 -0.66,-49.75 -1.95,-84.87 -3.9,-85.86 -34.8,-151.23 -92.68,-196.11 -57.9,-44.88 -135.62,-67.32 -233.18,-67.32 -97.57,0 -175.3,22.44 -233.18,67.32"
         style="fill:#392c7f;fill-opacity:1;fill-rule:nonzero;stroke:none"
         id="path20" /><path
         d="m 4339.17,1796.69 c -5.21,5.2 -7.8,11.38 -7.8,18.54 v 630.27 c 0,7.14 2.59,13.32 7.8,18.53 5.21,5.2 11.38,7.81 18.55,7.81 h 154.14 c 18.2,0 31.54,-7.48 40,-22.45 l 164.88,-270.25 v 266.36 c 0,7.14 2.6,13.32 7.81,18.53 5.2,5.2 11.37,7.81 18.54,7.81 h 176.59 c 7.15,0 13.32,-2.61 18.53,-7.81 5.21,-5.21 7.81,-11.39 7.81,-18.53 v -630.27 c 0,-7.16 -2.6,-13.34 -7.81,-18.54 -5.21,-5.21 -11.38,-7.8 -18.53,-7.8 h -154.15 c -11.08,0 -19.51,2.27 -25.37,6.83 -5.85,4.54 -10.73,9.76 -14.63,15.61 l -164.89,248.79 v -244.89 c 0,-7.16 -2.61,-13.34 -7.81,-18.54 -5.21,-5.21 -11.38,-7.8 -18.53,-7.8 h -176.58 c -7.17,0 -13.34,2.59 -18.55,7.8"
         style="fill:#392c7f;fill-opacity:1;fill-rule:nonzero;stroke:none"
         id="path22" /><path
         d="m 5127.48,1846.45 c -57.25,44.88 -87.81,111.86 -91.71,200.98 -0.65,17.57 -0.97,46.5 -0.97,86.84 0,40.97 0.32,70.56 0.97,88.78 3.25,84.55 34.15,148.79 92.69,192.69 58.53,43.9 137.22,65.85 236.1,65.85 66.35,0 124.88,-9.75 175.62,-29.27 50.74,-19.51 89.76,-45.86 117.08,-79.02 27.31,-33.17 41.61,-69.61 42.92,-109.28 0,-5.84 -2.11,-10.89 -6.33,-15.11 -4.24,-4.24 -9.28,-6.35 -15.13,-6.35 h -215.61 c -13.03,0 -22.45,3.57 -28.31,10.73 -0.64,1.3 -3.57,5.37 -8.77,12.2 -5.21,6.82 -13.18,12.83 -23.9,18.05 -10.74,5.2 -23.26,7.81 -37.57,7.81 -48.13,0 -73.17,-24.4 -75.13,-73.17 -0.64,-17.57 -0.97,-44.89 -0.97,-81.96 0,-37.08 0.33,-65.05 0.97,-83.91 1.96,-55.29 28.3,-82.93 79.04,-82.93 26,0 46.33,5.52 60.97,16.59 14.64,11.05 21.96,28.61 21.96,52.68 v 0.98 h -45.86 c -7.16,0 -13.33,2.59 -18.54,7.8 -5.21,5.21 -7.8,11.38 -7.8,18.54 v 108.3 c 0,7.14 2.59,13.32 7.8,18.53 5.21,5.2 11.38,7.81 18.54,7.81 h 268.3 c 7.16,0 13.33,-2.61 18.54,-7.81 5.2,-5.21 7.8,-11.39 7.8,-18.53 v -126.84 c 0,-57.23 -14.14,-106.02 -42.44,-146.35 -28.29,-40.33 -67.65,-70.73 -118.05,-91.22 -50.41,-20.48 -108.78,-30.73 -175.13,-30.73 -100.83,0 -179.85,22.44 -237.08,67.32"
         style="fill:#392c7f;fill-opacity:1;fill-rule:nonzero;stroke:none"
         id="path24" /><path
         d="m 5795.78,1796.69 c -5.21,5.2 -7.8,11.38 -7.8,18.54 v 630.27 c 0,7.14 2.59,13.32 7.8,18.53 5.2,5.2 11.37,7.81 18.54,7.81 h 500.5 c 7.15,0 13.32,-2.61 18.54,-7.81 5.19,-5.21 7.8,-11.39 7.8,-18.53 v -137.57 c 0,-7.17 -2.61,-13.34 -7.8,-18.54 -5.22,-5.21 -11.39,-7.8 -18.54,-7.8 h -292.69 v -61.46 h 271.23 c 7.15,0 13.32,-2.61 18.53,-7.82 5.2,-5.21 7.82,-11.38 7.82,-18.53 v -126.84 c 0,-7.15 -2.62,-13.34 -7.82,-18.53 -5.21,-5.22 -11.38,-7.8 -18.53,-7.8 h -271.23 v -61.47 h 300.5 c 7.15,0 13.33,-2.61 18.53,-7.8 5.21,-5.22 7.8,-11.39 7.8,-18.55 v -137.56 c 0,-7.16 -2.59,-13.34 -7.8,-18.54 -5.2,-5.21 -11.38,-7.8 -18.53,-7.8 h -508.31 c -7.17,0 -13.34,2.59 -18.54,7.8"
         style="fill:#392c7f;fill-opacity:1;fill-rule:nonzero;stroke:none"
         id="path26" /><path
         d="m 6753.86,2186.95 c 14.29,0 25.36,4.71 33.17,14.14 7.8,9.43 11.7,21.3 11.7,35.62 0,14.3 -3.75,26.83 -11.21,37.56 -7.49,10.73 -18.71,16.1 -33.66,16.1 h -71.22 v -103.42 z m -307.34,-390.26 c -5.21,5.2 -7.79,11.38 -7.79,18.54 v 630.27 c 0,7.14 2.58,13.32 7.79,18.53 5.21,5.2 11.38,7.81 18.55,7.81 h 288.79 c 93.66,0 166.82,-20.98 219.52,-62.93 52.67,-41.96 79.02,-100 79.02,-174.15 0,-42.29 -9.43,-79.52 -28.3,-111.71 -18.87,-32.2 -44.55,-58.71 -77.07,-79.51 l 120,-222.46 c 1.95,-3.89 2.93,-7.48 2.93,-10.73 0,-5.85 -2.12,-10.9 -6.34,-15.12 -4.24,-4.23 -9.26,-6.34 -15.12,-6.34 h -200 c -11.71,0 -20.98,2.76 -27.82,8.29 -6.82,5.52 -11.55,11.54 -14.14,18.05 l -83.9,186.35 h -40 v -186.35 c 0,-7.16 -2.61,-13.34 -7.82,-18.54 -5.21,-5.21 -11.38,-7.8 -18.53,-7.8 h -191.22 c -7.17,0 -13.34,2.59 -18.55,7.8"
         style="fill:#392c7f;fill-opacity:1;fill-rule:nonzero;stroke:none"
         id="path28" /><path
         d="m 1884.47,1085.06 c 22.77,0 41.14,6.66 55.13,20 13.97,13.32 21.61,33.01 22.93,59.03 1.3,18.85 1.95,43.25 1.95,73.18 0,30.56 -0.65,54.63 -1.95,72.19 -1.32,26.01 -9.6,45.52 -24.87,58.54 -15.3,13.01 -34.64,19.52 -58.06,19.52 h -58.55 V 1085.06 Z M 1584.96,902.609 c -5.21,5.211 -7.81,11.379 -7.81,18.551 v 630.27 c 0,7.14 2.6,13.32 7.81,18.53 5.2,5.2 11.37,7.8 18.54,7.8 h 280.97 c 61.8,0 116.75,-10.41 164.89,-31.22 48.12,-20.82 86.5,-51.38 115.13,-91.71 28.62,-40.33 43.9,-88.78 45.85,-145.37 1.3,-36.43 1.96,-61.14 1.96,-74.15 0,-12.37 -0.66,-36.1 -1.96,-71.22 -3.89,-89.76 -34.31,-157.08 -91.22,-201.961 -56.92,-44.879 -133.51,-67.32 -229.76,-67.32 H 1603.5 c -7.17,0 -13.34,2.601 -18.54,7.8"
         style="fill:#5e55af;fill-opacity:1;fill-rule:nonzero;stroke:none"
         id="path30" /><path
         d="m 2306.91,902.609 c -5.21,5.211 -7.79,11.379 -7.79,18.551 v 630.27 c 0,7.14 2.58,13.32 7.79,18.53 5.21,5.2 11.38,7.8 18.55,7.8 h 500.5 c 7.15,0 13.32,-2.6 18.53,-7.8 5.21,-5.21 7.81,-11.39 7.81,-18.53 v -137.57 c 0,-7.17 -2.6,-13.34 -7.81,-18.54 -5.21,-5.21 -11.38,-7.8 -18.53,-7.8 h -292.7 v -61.47 h 271.23 c 7.15,0 13.32,-2.6 18.54,-7.81 5.2,-5.21 7.81,-11.38 7.81,-18.53 v -126.84 c 0,-7.16 -2.61,-13.34 -7.81,-18.54 -5.22,-5.21 -11.39,-7.8 -18.54,-7.8 h -271.23 v -61.47 h 300.51 c 7.15,0 13.32,-2.6 18.53,-7.8 5.2,-5.21 7.81,-11.39 7.81,-18.54 V 921.16 c 0,-7.172 -2.61,-13.34 -7.81,-18.551 -5.21,-5.199 -11.38,-7.8 -18.53,-7.8 h -508.31 c -7.17,0 -13.34,2.601 -18.55,7.8"
         style="fill:#5e55af;fill-opacity:1;fill-rule:nonzero;stroke:none"
         id="path32" /><path
         d="m 2957.67,902.609 c -5.22,5.211 -7.81,11.379 -7.81,18.551 v 630.27 c 0,7.14 2.59,13.32 7.81,18.53 5.2,5.2 11.37,7.8 18.54,7.8 h 154.14 c 18.2,0 32.2,-8.78 41.95,-26.33 l 141.47,-234.16 141.47,234.16 c 9.76,17.55 23.74,26.33 41.96,26.33 h 154.15 c 7.15,0 13.32,-2.6 18.53,-7.8 5.2,-5.21 7.82,-11.39 7.82,-18.53 V 921.16 c 0,-7.172 -2.62,-13.34 -7.82,-18.551 -5.21,-5.199 -11.38,-7.8 -18.53,-7.8 h -176.59 c -7.16,0 -13.34,2.601 -18.54,7.8 -5.21,5.211 -7.8,11.379 -7.8,18.551 v 267.32 l -64.4,-105.37 c -4.56,-7.17 -9.61,-13.02 -15.12,-17.56 -5.54,-4.56 -12.53,-6.83 -20.97,-6.83 h -68.3 c -8.46,0 -15.46,2.27 -20.98,6.83 -5.52,4.54 -10.58,10.39 -15.11,17.56 l -64.4,105.37 V 921.16 c 0,-7.172 -2.62,-13.34 -7.81,-18.551 -5.22,-5.199 -11.39,-7.8 -18.54,-7.8 h -176.58 c -7.17,0 -13.34,2.601 -18.54,7.8"
         style="fill:#5e55af;fill-opacity:1;fill-rule:nonzero;stroke:none"
         id="path34" /><path
         d="m 4145.49,1094.82 c 12.68,13 19.35,32.83 20,59.51 1.3,37.72 1.95,65.37 1.95,82.94 0,18.85 -0.65,45.85 -1.95,80.97 -0.65,26.66 -7.48,46.5 -20.49,59.51 -13.01,13.01 -30.23,19.53 -51.7,19.53 -21.46,0 -38.71,-6.52 -51.72,-19.53 -13.01,-13.01 -19.84,-32.85 -20.49,-59.51 -0.64,-17.56 -0.97,-44.56 -0.97,-80.97 0,-36.45 0.33,-64.08 0.97,-82.94 0.65,-26.68 7.33,-46.51 20,-59.51 12.7,-13.02 30.08,-19.51 52.21,-19.51 22.1,0 39.51,6.49 52.19,19.51 z M 3860.12,952.379 c -57.89,44.871 -88.79,110.241 -92.69,196.101 -0.65,17.56 -0.97,45.85 -0.97,84.88 0,39.67 0.32,68.62 0.97,86.84 1.96,55.92 16.74,104.06 44.39,144.39 27.64,40.32 65.52,70.89 113.67,91.71 48.12,20.81 104.06,31.22 167.81,31.22 63.73,0 119.67,-10.41 167.8,-31.22 48.14,-20.82 86.01,-51.39 113.67,-91.71 27.63,-40.33 42.44,-88.47 44.39,-144.39 1.29,-36.44 1.95,-65.38 1.95,-86.84 0,-21.46 -0.66,-49.76 -1.95,-84.88 -3.91,-85.86 -34.8,-151.23 -92.69,-196.101 -57.9,-44.891 -135.61,-67.328 -233.17,-67.328 -97.57,0 -175.3,22.437 -233.18,67.328"
         style="fill:#5e55af;fill-opacity:1;fill-rule:nonzero;stroke:none"
         id="path36" /><path
         d="m 4584.03,949.941 c -57.9,43.25 -88.78,109.749 -92.68,199.519 -0.66,17.56 -0.98,46.17 -0.98,85.85 0,40.32 0.32,69.59 0.98,87.81 3.9,87.15 35.45,153.01 94.64,197.57 59.17,44.54 136.59,66.83 232.19,66.83 58.54,0 112.36,-8.78 161.47,-26.34 49.11,-17.57 89.11,-45.05 120.01,-82.44 30.89,-37.41 46.67,-84.39 47.31,-140.99 0,-5.85 -2.11,-10.89 -6.34,-15.11 -4.23,-4.24 -9.26,-6.35 -15.12,-6.35 h -199.03 c -10.41,0 -18.04,1.95 -22.93,5.86 -4.88,3.9 -9.26,11.37 -13.16,22.44 -7.17,19.51 -16.59,33.16 -28.3,40.98 -11.71,7.8 -26.68,11.71 -44.88,11.71 -22.78,0 -40.33,-6.03 -52.68,-18.06 -12.36,-12.04 -18.88,-32.36 -19.51,-60.98 -0.66,-17.56 -0.98,-44.56 -0.98,-80.97 0,-36.45 0.32,-64.08 0.98,-82.94 0.63,-28.62 7.15,-48.94 19.51,-60.98 12.35,-12.04 29.9,-18.04 52.68,-18.04 37.08,0 61.46,17.56 73.18,52.68 3.24,11.05 7.31,18.54 12.19,22.44 4.88,3.9 12.83,5.85 23.9,5.85 h 199.03 c 5.86,0 10.89,-2.12 15.12,-6.33 4.23,-4.24 6.34,-9.28 6.34,-15.13 -0.64,-56.59 -16.42,-103.58 -47.31,-140.98 -30.9,-37.41 -70.9,-64.879 -120.01,-82.442 -49.11,-17.57 -102.93,-26.347 -161.47,-26.347 -98.22,0 -176.27,21.617 -234.15,64.89"
         style="fill:#5e55af;fill-opacity:1;fill-rule:nonzero;stroke:none"
         id="path38" /><path
         d="m 5539.18,1292.88 c 14.3,0 25.36,4.71 33.16,14.14 7.82,9.43 11.71,21.3 11.71,35.62 0,14.29 -3.75,26.82 -11.22,37.56 -7.48,10.73 -18.71,16.1 -33.65,16.1 h -71.23 V 1292.88 Z M 5231.85,902.609 c -5.22,5.211 -7.81,11.379 -7.81,18.551 v 630.27 c 0,7.14 2.59,13.32 7.81,18.53 5.2,5.2 11.37,7.8 18.54,7.8 h 288.79 c 93.65,0 166.83,-20.97 219.51,-62.93 52.69,-41.95 79.02,-100 79.02,-174.15 0,-42.28 -9.43,-79.51 -28.29,-111.71 -18.87,-32.2 -44.56,-58.71 -77.08,-79.51 l 120.01,-222.448 c 1.96,-3.903 2.92,-7.481 2.92,-10.742 0,-5.852 -2.11,-10.891 -6.32,-15.11 -4.24,-4.238 -9.28,-6.351 -15.13,-6.351 h -200.01 c -11.7,0 -20.98,2.761 -27.8,8.293 -6.83,5.527 -11.56,11.539 -14.15,18.058 l -83.91,186.34 h -40 V 921.16 c 0,-7.172 -2.6,-13.34 -7.8,-18.551 -5.22,-5.199 -11.39,-7.8 -18.55,-7.8 h -191.21 c -7.17,0 -13.34,2.601 -18.54,7.8"
         style="fill:#5e55af;fill-opacity:1;fill-rule:nonzero;stroke:none"
         id="path40" /><path
         d="m 6187.96,1173.84 h 110.24 l -55.6,181.48 z M 5881.12,901.16 c -4.24,4.219 -6.33,9.258 -6.33,15.11 0,2.601 0.31,4.89 0.97,6.839 l 217.56,622.461 c 2.6,8.44 7.47,15.93 14.64,22.44 7.15,6.49 16.9,9.75 29.27,9.75 h 211.72 c 12.34,0 22.09,-3.26 29.26,-9.75 7.15,-6.51 12.02,-14 14.64,-22.44 l 217.56,-622.461 c 0.64,-1.949 0.98,-4.238 0.98,-6.839 0,-5.852 -2.12,-10.891 -6.34,-15.11 -4.24,-4.238 -9.27,-6.351 -15.13,-6.351 h -180.49 c -19.51,0 -32.19,8.121 -38.04,24.39 l -23.42,64.403 H 6138.2 l -23.41,-64.403 c -5.85,-16.269 -18.54,-24.39 -38.05,-24.39 h -180.49 c -5.86,0 -10.9,2.113 -15.13,6.351"
         style="fill:#5e55af;fill-opacity:1;fill-rule:nonzero;stroke:none"
         id="path42" /><path
         d="m 6723.57,949.941 c -57.89,43.25 -88.78,109.749 -92.68,199.519 -0.66,17.56 -0.98,46.17 -0.98,85.85 0,40.32 0.32,69.59 0.98,87.81 3.9,87.15 35.44,153.01 94.64,197.57 59.18,44.54 136.58,66.83 232.2,66.83 58.54,0 112.35,-8.78 161.47,-26.34 49.1,-17.57 89.1,-45.05 120,-82.44 30.88,-37.41 46.66,-84.39 47.32,-140.99 0,-5.85 -2.13,-10.89 -6.34,-15.11 -4.24,-4.24 -9.27,-6.35 -15.12,-6.35 h -199.03 c -10.42,0 -18.06,1.95 -22.93,5.86 -4.88,3.9 -9.27,11.37 -13.18,22.44 -7.17,19.51 -16.58,33.16 -28.29,40.98 -11.71,7.8 -26.67,11.71 -44.87,11.71 -22.78,0 -40.34,-6.03 -52.7,-18.06 -12.36,-12.04 -18.86,-32.36 -19.51,-60.98 -0.64,-17.56 -0.98,-44.56 -0.98,-80.97 0,-36.45 0.34,-64.08 0.98,-82.94 0.65,-28.62 7.15,-48.94 19.51,-60.98 12.36,-12.04 29.92,-18.04 52.7,-18.04 37.07,0 61.46,17.56 73.16,52.68 3.25,11.05 7.33,18.54 12.2,22.44 4.87,3.9 12.84,5.85 23.91,5.85 h 199.03 c 5.85,0 10.88,-2.12 15.12,-6.33 4.21,-4.24 6.34,-9.28 6.34,-15.13 -0.66,-56.59 -16.44,-103.58 -47.32,-140.98 -30.9,-37.41 -70.9,-64.879 -120,-82.442 -49.12,-17.57 -102.93,-26.347 -161.47,-26.347 -98.22,0 -176.27,21.617 -234.16,64.89"
         style="fill:#5e55af;fill-opacity:1;fill-rule:nonzero;stroke:none"
         id="path44" /><path
         d="m 7521.64,902.609 c -5.21,5.211 -7.8,11.379 -7.8,18.551 v 192.19 l -219.52,434.17 c -1.31,2.59 -1.96,5.52 -1.96,8.78 0,5.86 2.11,10.89 6.35,15.13 4.22,4.21 9.26,6.33 15.12,6.33 h 183.42 c 11.05,0 20,-2.77 26.83,-8.29 6.83,-5.54 11.55,-10.9 14.14,-16.1 l 97.57,-196.1 97.57,196.1 c 2.59,5.2 7.31,10.56 14.14,16.1 6.84,5.52 15.76,8.29 26.84,8.29 h 183.41 c 5.85,0 10.88,-2.12 15.12,-6.33 4.22,-4.24 6.35,-9.27 6.35,-15.13 0,-3.26 -0.67,-6.19 -1.95,-8.78 L 7757.74,1113.35 V 921.16 c 0,-7.172 -2.6,-13.34 -7.8,-18.551 -5.21,-5.199 -11.39,-7.8 -18.53,-7.8 h -191.23 c -7.17,0 -13.34,2.601 -18.54,7.8"
         style="fill:#5e55af;fill-opacity:1;fill-rule:nonzero;stroke:none"
         id="path46" /><path
         d="m 1791.54,249.48 h 220.24 L 1901.66,549.629 Z M 1582.99,5.83984 c -3.89,3.91016 -5.84,8.78126 -5.84,14.62106 l 1.95,8.7696 233.88,628.5705 c 6.49,16.238 18.18,24.359 35.09,24.359 h 107.2 c 16.87,0 28.58,-8.121 35.07,-24.359 l 233.89,-628.5705 1.95,-8.7696 c 0,-5.8398 -2.12,-10.7109 -6.34,-14.62106 C 2215.61,1.94922 2210.91,0 2205.71,0 h -86.73 c -13.64,0 -23.07,6.16797 -28.26,18.5117 L 2045.89,136.441 H 1757.43 L 1712.61,18.5117 C 1707.4,6.16797 1697.99,0 1684.35,0 h -86.74 c -5.85,0 -10.72,1.94922 -14.62,5.83984"
         style="fill:#8771bf;fill-opacity:1;fill-rule:nonzero;stroke:none"
         id="path48" /><path
         d="m 2365.52,29.2305 -114.99,624.6675 -0.98,7.801 c 0,5.84 1.95,10.719 5.85,14.621 3.9,3.891 8.77,5.84 14.62,5.84 h 87.7 c 8.44,0 14.62,-1.449 18.52,-4.379 3.9,-2.922 6.48,-7.961 7.8,-15.101 l 80.88,-438.532 86.73,282.602 c 6.48,16.23 17.21,24.371 32.16,24.371 h 53.6 c 8.44,0 15.26,-2.441 20.47,-7.32 5.19,-4.871 8.77,-10.563 10.72,-17.051 l 87.7,-282.602 79.91,438.532 c 1.95,12.992 11.04,19.48 27.29,19.48 h 87.71 c 5.2,0 9.74,-1.949 13.64,-5.84 3.9,-3.902 5.85,-8.781 5.85,-14.621 0,-3.258 -0.34,-5.847 -0.97,-7.801 l -115,-624.6675 c -1.31,-9.1016 -5.04,-16.2422 -11.2,-21.42972 C 2837.34,2.58984 2829.39,0 2819.64,0 h -66.27 c -9.09,0 -16.56,2.44141 -22.41,7.30859 -5.84,4.87111 -9.74,10.56251 -11.69,17.06251 L 2610.13,347.91 2500.98,24.3711 C 2495.77,8.10938 2484.41,0 2466.87,0 h -66.26 c -18.86,0 -30.55,9.75 -35.09,29.2305"
         style="fill:#8771bf;fill-opacity:1;fill-rule:nonzero;stroke:none"
         id="path50" /><path
         d="m 3208.47,249.48 h 220.25 L 3318.59,549.629 Z M 2999.93,5.83984 c -3.89,3.91016 -5.85,8.78126 -5.85,14.62106 l 1.96,8.7696 233.88,628.5705 c 6.48,16.238 18.18,24.359 35.08,24.359 h 107.2 c 16.88,0 28.58,-8.121 35.08,-24.359 l 233.89,-628.5705 1.94,-8.7696 c 0,-5.8398 -2.12,-10.7109 -6.33,-14.62106 C 3632.54,1.94922 3627.84,0 3622.65,0 h -86.73 c -13.64,0 -23.07,6.16797 -28.27,18.5117 L 3462.82,136.441 H 3174.37 L 3129.54,18.5117 C 3124.34,6.16797 3114.93,0 3101.28,0 h -86.73 c -5.85,0 -10.73,1.94922 -14.62,5.83984"
         style="fill:#8771bf;fill-opacity:1;fill-rule:nonzero;stroke:none"
         id="path52" /><path
         d="m 4005.63,368.371 c 38.97,0 68.21,8.609 87.7,25.82 19.49,17.207 29.23,42.399 29.23,75.528 0,33.14 -9.74,58.621 -29.23,76.511 -19.49,17.848 -48.73,26.79 -87.7,26.79 H 3870.16 V 368.371 Z M 3739.58,6.82031 c -4.56,4.53909 -6.83,10.07029 -6.83,16.57029 V 657.801 c 0,7.148 2.11,12.988 6.34,17.551 4.22,4.527 9.9,6.808 17.05,6.808 h 252.41 c 79.91,0 142.43,-18.512 187.59,-55.539 45.15,-37.043 67.73,-89.66 67.73,-157.883 0,-47.429 -11.38,-87.207 -34.11,-119.379 -22.75,-32.16 -54.57,-55.39 -95.51,-69.668 L 4275.57,31.1914 c 1.94,-3.9023 2.92,-7.4726 2.92,-10.7305 0,-5.8398 -2.11,-10.7109 -6.34,-14.62106 C 4267.92,1.94922 4263.21,0 4258.02,0 h -89.65 c -10.4,0 -18.52,2.44141 -24.37,7.30859 -5.85,4.87111 -11.05,11.20311 -15.59,19.00001 L 4003.67,257.281 H 3870.16 V 23.3906 c 0,-6.5 -2.28,-12.0312 -6.81,-16.57029 C 3858.79,2.26953 3852.94,0 3845.8,0 h -89.66 c -6.5,0 -12.03,2.26953 -16.56,6.82031"
         style="fill:#8771bf;fill-opacity:1;fill-rule:nonzero;stroke:none"
         id="path54" /><path
         d="m 4650.74,113.051 c 53.92,0 92.9,12.008 116.95,36.058 24.02,24.02 36.7,63.969 38,119.86 1.29,38.972 1.95,63.34 1.95,73.09 0,10.39 -0.66,34.429 -1.95,72.113 -1.3,53.269 -14.63,92.418 -39.96,117.437 -25.34,25 -65.29,37.512 -119.86,37.512 h -118.9 V 113.051 Z M 4396.4,6.82031 c -4.56,4.53909 -6.84,10.07029 -6.84,16.57029 V 657.801 c 0,7.148 2.11,12.988 6.35,17.551 4.21,4.527 9.89,6.808 17.05,6.808 h 237.78 c 191.65,0 289.43,-88.359 293.33,-265.07 1.29,-37.68 1.95,-63.02 1.95,-76.012 0,-12.34 -0.66,-37.359 -1.95,-75.039 C 4941.47,175.078 4916.94,108 4870.5,64.8086 4824.03,21.6016 4752.41,0 4655.62,0 h -242.66 c -6.5,0 -12.03,2.26953 -16.56,6.82031"
         style="fill:#8771bf;fill-opacity:1;fill-rule:nonzero;stroke:none"
         id="path56" /><path
         d="m 456.152,1797.36 h 684.228 c 62.98,0 114.04,-51.06 114.04,-114.04 v 0 c 0,-62.98 -51.06,-114.03 -114.04,-114.03 H 456.152 c -62.984,0 -114.039,51.05 -114.039,114.03 v 0 c 0,62.98 51.055,114.04 114.039,114.04"
         style="fill:#5e55af;fill-opacity:1;fill-rule:nonzero;stroke:none"
         id="path58" /><path
         d="m 114.039,1797.36 v 0 c 62.984,0 114.035,-51.06 114.035,-114.04 v 0 c 0,-62.98 -51.051,-114.03 -114.035,-114.03 v 0 C 51.0547,1569.29 0,1620.34 0,1683.32 v 0 c 0,62.98 51.0547,114.04 114.039,114.04"
         style="fill:#8771bf;fill-opacity:1;fill-rule:nonzero;stroke:none"
         id="path60" /><path
         d="M 798.266,1911.4 H 342.113 c -62.98,0 -114.039,51.06 -114.039,114.04 v 0 c 0,62.98 51.059,114.04 114.039,114.04 h 456.153 c 62.984,0 114.039,-51.06 114.039,-114.04 v 0 c 0,-62.98 -51.055,-114.04 -114.039,-114.04"
         style="fill:#392c7f;fill-opacity:1;fill-rule:nonzero;stroke:none"
         id="path62" /><path
         d="m 1140.38,1911.4 v 0 c -62.98,0 -114.04,51.06 -114.04,114.04 v 0 c 0,62.98 51.06,114.04 114.04,114.04 v 0 c 62.98,0 114.04,-51.06 114.04,-114.04 v 0 c 0,-62.98 -51.06,-114.04 -114.04,-114.04"
         style="fill:#8771bf;fill-opacity:1;fill-rule:nonzero;stroke:none"
         id="path64" /><path
         d="m 912.305,2481.59 h 228.075 c 62.98,0 114.04,-51.06 114.04,-114.04 v 0 c 0,-62.98 -51.06,-114.03 -114.04,-114.03 H 912.305 c -62.985,0 -114.039,51.05 -114.039,114.03 v 0 c 0,62.98 51.054,114.04 114.039,114.04"
         style="fill:#8771bf;fill-opacity:1;fill-rule:nonzero;stroke:none"
         id="path66" /><path
         d="m 570.191,2481.59 v 0 c 62.985,0 114.039,-51.06 114.039,-114.04 v 0 c 0,-62.98 -51.054,-114.03 -114.039,-114.03 v 0 c -62.984,0 -114.039,51.05 -114.039,114.03 v 0 c 0,62.98 51.055,114.04 114.039,114.04"
         style="fill:#5e55af;fill-opacity:1;fill-rule:nonzero;stroke:none"
         id="path68" /><path
         d="M 798.266,1227.17 H 342.113 c -62.98,0 -114.039,51.06 -114.039,114.04 v 0 c 0,62.98 51.059,114.04 114.039,114.04 h 456.153 c 62.984,0 114.039,-51.06 114.039,-114.04 v 0 c 0,-62.98 -51.055,-114.04 -114.039,-114.04"
         style="fill:#8771bf;fill-opacity:1;fill-rule:nonzero;stroke:none"
         id="path70" /><path
         d="m 1140.38,1227.17 v 0 c -62.98,0 -114.04,51.06 -114.04,114.04 v 0 c 0,62.98 51.06,114.04 114.04,114.04 v 0 c 62.98,0 114.04,-51.06 114.04,-114.04 v 0 c 0,-62.98 -51.06,-114.04 -114.04,-114.04"
         style="fill:#392c7f;fill-opacity:1;fill-rule:nonzero;stroke:none"
         id="path72" /><path
         d="m 912.305,1113.13 h 228.075 c 62.98,0 114.04,-51.06 114.04,-114.028 v 0 c 0,-62.981 -51.06,-114.051 -114.04,-114.051 H 912.305 c -62.985,0 -114.039,51.07 -114.039,114.051 v 0 c 0,62.968 51.054,114.028 114.039,114.028"
         style="fill:#5e55af;fill-opacity:1;fill-rule:nonzero;stroke:none"
         id="path74" /><path
         d="m 570.191,1113.13 v 0 c 62.985,0 114.039,-51.06 114.039,-114.028 v 0 c 0,-62.981 -51.054,-114.051 -114.039,-114.051 v 0 c -62.984,0 -114.039,51.07 -114.039,114.051 v 0 c 0,62.968 51.055,114.028 114.039,114.028"
         style="fill:#392c7f;fill-opacity:1;fill-rule:nonzero;stroke:none"
         id="path76" /></g></g></svg>
