<?xml version="1.0" encoding="UTF-8" standalone="no"?>
<!-- Created with Inkscape (http://www.inkscape.org/) -->

<svg
   width="263.28268mm"
   height="128.55452mm"
   viewBox="0 0 263.28268 128.55452"
   version="1.1"
   id="svg4435"
   sodipodi:docname="PoweredbyLeverforChange.svg"
   inkscape:version="1.1.2 (b8e25be8, 2022-02-05)"
   xmlns:inkscape="http://www.inkscape.org/namespaces/inkscape"
   xmlns:sodipodi="http://sodipodi.sourceforge.net/DTD/sodipodi-0.dtd"
   xmlns="http://www.w3.org/2000/svg"
   xmlns:svg="http://www.w3.org/2000/svg">
  <sodipodi:namedview
     id="namedview86"
     pagecolor="#ffffff"
     bordercolor="#000000"
     borderopacity="0.25"
     inkscape:pageshadow="2"
     inkscape:pageopacity="0.0"
     inkscape:pagecheckerboard="0"
     inkscape:document-units="mm"
     showgrid="false"
     inkscape:zoom="0.80084617"
     inkscape:cx="510.08548"
     inkscape:cy="252.23321"
     inkscape:window-width="1440"
     inkscape:window-height="900"
     inkscape:window-x="0"
     inkscape:window-y="25"
     inkscape:window-maximized="0"
     inkscape:current-layer="text5484" />
  <defs
     id="defs4432">
    <rect
       x="17.658991"
       y="-70.635963"
       width="356.71161"
       height="89.17791"
       id="rect5486" />
    <rect
       x="-15.893092"
       y="-76.816612"
       width="346.99918"
       height="37.966831"
       id="rect3742" />
    <clipPath
       clipPathUnits="userSpaceOnUse"
       id="clipPath3093">
      <path
         d="m -645.3828,566.6603 h 3214.088 v -1880.658 h -3214.088 z"
         id="path3095"
         style="stroke-width:0.999998" />
    </clipPath>
    <clipPath
       clipPathUnits="userSpaceOnUse"
       id="clipPath3089">
      <path
         d="m -785.0625,519.6457 h 3214.088 v -1880.658 h -3214.088 z"
         id="path3091"
         style="stroke-width:0.999998" />
    </clipPath>
    <clipPath
       clipPathUnits="userSpaceOnUse"
       id="clipPath3085">
      <path
         d="m -943.6328,550.8132 h 3214.088 v -1880.658 h -3214.088 z"
         id="path3087"
         style="stroke-width:0.999998" />
    </clipPath>
    <clipPath
       clipPathUnits="userSpaceOnUse"
       id="clipPath3081">
      <path
         d="m -1023.8037,519.6457 h 3214.088 v -1880.658 h -3214.088 z"
         id="path3083"
         style="stroke-width:0.999998" />
    </clipPath>
    <clipPath
       clipPathUnits="userSpaceOnUse"
       id="clipPath3077">
      <path
         d="m -542.1279,761.4455 h 3214.088 v -1880.658 h -3214.088 z"
         id="path3079"
         style="stroke-width:0.999998" />
    </clipPath>
    <clipPath
       clipPathUnits="userSpaceOnUse"
       id="clipPath3073">
      <path
         d="m -675.2139,600.6496 h 3214.088 v -1880.658 h -3214.088 z"
         id="path3075"
         style="stroke-width:0.999998" />
    </clipPath>
    <clipPath
       clipPathUnits="userSpaceOnUse"
       id="clipPath3069">
      <path
         d="m -744.7529,709.4367 h 3214.088 v -1880.658 h -3214.088 z"
         id="path3071"
         style="stroke-width:0.999998" />
    </clipPath>
    <clipPath
       clipPathUnits="userSpaceOnUse"
       id="clipPath3065">
      <path
         d="m -871.6846,759.6281 h 3214.088 v -1880.658 h -3214.088 z"
         id="path3067"
         style="stroke-width:0.999998" />
    </clipPath>
    <clipPath
       clipPathUnits="userSpaceOnUse"
       id="clipPath3061">
      <path
         d="m -929.8213,761.4455 h 3214.088 v -1880.658 h -3214.088 z"
         id="path3063"
         style="stroke-width:0.999998" />
    </clipPath>
    <clipPath
       clipPathUnits="userSpaceOnUse"
       id="clipPath3057">
      <path
         d="m -1013.1689,625.632 h 3214.088 v -1880.658 h -3214.088 z"
         id="path3059"
         style="stroke-width:0.999998" />
    </clipPath>
    <clipPath
       clipPathUnits="userSpaceOnUse"
       id="clipPath463">
      <path
         d="m 1113.93,1393.44 h 57.94 v -136.82 h -57.94 z"
         id="path461" />
    </clipPath>
    <clipPath
       clipPathUnits="userSpaceOnUse"
       id="clipPath3053">
      <path
         d="m -1134.939,624.0382 h 3214.088 v -1880.658 h -3214.088 z"
         id="path3055"
         style="stroke-width:0.999998" />
    </clipPath>
    <clipPath
       clipPathUnits="userSpaceOnUse"
       id="clipPath483">
      <path
         d="m 1113.92,1256.62 h 57.95 V 1119.8 h -57.95 z"
         id="path481" />
    </clipPath>
    <clipPath
       clipPathUnits="userSpaceOnUse"
       id="clipPath499">
      <path
         d="m 1171.87,1314.52 h 78.87 v -115.8 h -78.87 z"
         id="path497" />
    </clipPath>
  </defs>
  <text
     xml:space="preserve"
     transform="matrix(0.26458333,0,0,0.26458333,0.23361409,15.954377)"
     id="text3740"
     style="white-space:pre;shape-inside:url(#rect3742);fill:#000000" />
  <g
     aria-label="Powered by:"
     transform="matrix(0.26458333,0,0,0.26458333,-5.1395019,14.786308)"
     id="text5484"
     style="font-size:64px;white-space:pre;shape-inside:url(#rect5486)">
    <g
       id="g308">
      <g
         id="layer1"
         transform="matrix(3.7795276,0,0,3.7795276,203.04195,-352.53014)">
        <g
           id="g3925"
           transform="matrix(0.35277777,0,0,-0.35277777,-226.53261,601.8751)">
          <g
             id="g393"
             transform="translate(504.8291,1313.9977)">
            <path
               d="M 0,0 H 43.54 V 16.607 H 16.608 V 79.376 H 0 Z"
               style="fill:#002d55;fill-opacity:1;fill-rule:nonzero;stroke:none"
               id="path395" />
          </g>
          <g
             id="g397"
             transform="translate(561.1533,1313.9977)">
            <path
               d="M 0,0 H 45.278 V 16.607 H 16.608 V 32.47 H 43.323 V 46.906 H 16.608 v 15.863 h 28.67 V 79.376 H 0 Z"
               style="fill:#002d55;fill-opacity:1;fill-rule:nonzero;stroke:none"
               id="path399" />
          </g>
          <g
             id="g401"
             transform="translate(645.3828,1313.9977)"
             clip-path="url(#clipPath3093)">
            <path
               d="M 0,0 H 12.125 L 41.087,79.376 H 23.135 L 5.952,30.488 -11.12,79.376 h -17.842 z"
               style="fill:#002d55;fill-opacity:1;fill-rule:nonzero;stroke:none"
               id="path403" />
          </g>
          <g
             id="g405"
             transform="translate(696.8018,1313.9977)">
            <path
               d="M 0,0 H 45.278 V 16.607 H 16.608 V 32.47 H 43.323 V 46.906 H 16.608 v 15.863 h 28.67 V 79.376 H 0 Z"
               style="fill:#002d55;fill-opacity:1;fill-rule:nonzero;stroke:none"
               id="path407" />
          </g>
          <g
             id="g409"
             transform="translate(785.0625,1361.0123)"
             clip-path="url(#clipPath3089)">
            <path
               d="M 0,0 H -8.42 V 15.754 H 0 c 4.403,0 7.985,-3.484 7.985,-7.768 C 7.985,3.508 4.478,0 0,0 m 12.016,-47.015 h 18.941 l -19.585,33.252 0.444,0.244 C 19.631,-9.228 24.485,-0.987 24.485,7.986 24.485,21.427 13.501,32.362 0,32.362 H -25.028 V -47.015 H -8.42 v 30.408 h 3.169 z"
               style="fill:#002d55;fill-opacity:1;fill-rule:nonzero;stroke:none"
               id="path411" />
          </g>
          <g
             id="g413"
             transform="translate(849.835,1313.9977)">
            <path
               d="m 0,0 h 16.608 v 32.47 h 24.87 V 46.906 H 16.608 V 62.769 H 43.432 V 79.376 H 0 Z"
               style="fill:#002d55;fill-opacity:1;fill-rule:nonzero;stroke:none"
               id="path415" />
          </g>
          <g
             id="g417"
             transform="translate(943.6328,1329.8448)"
             clip-path="url(#clipPath3085)">
            <path
               d="m 0,0 c -13.026,0 -23.623,10.695 -23.623,23.841 0,13.146 10.597,23.841 23.623,23.841 12.923,0 23.841,-10.918 23.841,-23.841 C 23.841,10.918 12.923,0 0,0 m 0.108,64.181 c -22.243,0 -40.339,-18.097 -40.339,-40.34 0,-22.243 18.096,-40.34 40.339,-40.34 22.245,0 40.341,18.097 40.341,40.34 0,22.243 -18.096,40.34 -40.341,40.34"
               style="fill:#002d55;fill-opacity:1;fill-rule:nonzero;stroke:none"
               id="path419" />
          </g>
          <g
             id="g421"
             transform="translate(1023.8037,1361.0123)"
             clip-path="url(#clipPath3081)">
            <path
               d="M 0,0 H -8.42 V 15.754 H 0 c 4.403,0 7.985,-3.484 7.985,-7.768 C 7.985,3.508 4.478,0 0,0 m 12.016,-47.015 h 18.941 l -19.585,33.252 0.444,0.244 C 19.631,-9.228 24.485,-0.987 24.485,7.986 24.485,21.427 13.501,32.362 0,32.362 H -25.028 V -47.015 H -8.42 v 30.408 h 3.169 z"
               style="fill:#002d55;fill-opacity:1;fill-rule:nonzero;stroke:none"
               id="path423" />
          </g>
          <g
             id="g425"
             transform="translate(542.1279,1119.2125)"
             clip-path="url(#clipPath3077)">
            <path
               d="m 0,0 c -10.6,0 -19.383,3.102 -26.346,9.313 -7.572,7.568 -11.355,17.487 -11.355,29.75 v 84.487 c 0,12.263 3.783,22.179 11.355,29.751 6.963,6.207 15.746,9.311 26.346,9.311 10.9,0 19.68,-3.104 26.344,-9.311 7.57,-7.268 11.355,-17.186 11.355,-29.751 V 109.469 H 12.717 v 14.081 c 0,5.599 -1.061,9.386 -3.18,11.355 -1.969,1.817 -5.148,2.725 -9.537,2.725 -4.242,0 -7.346,-0.908 -9.313,-2.725 -2.271,-2.122 -3.406,-5.905 -3.406,-11.355 V 39.063 c 0,-5.45 1.135,-9.237 3.406,-11.355 1.967,-1.816 5.071,-2.726 9.313,-2.726 4.389,0 7.568,0.91 9.537,2.726 2.119,1.966 3.18,5.752 3.18,11.355 V 59.504 H 37.699 V 39.063 C 37.699,26.494 33.914,16.58 26.344,9.313 19.68,3.102 10.9,0 0,0"
               style="fill:#002d55;fill-opacity:1;fill-rule:nonzero;stroke:none"
               id="path427" />
          </g>
          <g
             id="g429"
             transform="translate(675.2139,1280.0084)"
             clip-path="url(#clipPath3073)">
            <path
               d="m 0,0 v -158.979 h -24.982 v 69.042 h -25.436 v -69.042 H -75.4 V 0 h 24.982 v -64.954 h 25.436 V 0 Z"
               style="fill:#002d55;fill-opacity:1;fill-rule:nonzero;stroke:none"
               id="path431" />
          </g>
          <g
             id="g433"
             transform="translate(744.7529,1171.2213)"
             clip-path="url(#clipPath3069)">
            <path
               d="M 0,0 -9.992,57.006 -19.986,0 Z m 4.314,-24.982 h -28.615 l -4.543,-25.209 h -25.435 l 31.795,158.978 H 2.498 L 34.295,-50.191 H 8.857 Z"
               style="fill:#002d55;fill-opacity:1;fill-rule:nonzero;stroke:none"
               id="path435" />
          </g>
          <g
             id="g437"
             transform="translate(871.6846,1121.0299)"
             clip-path="url(#clipPath3065)">
            <path
               d="M 0,0 H -14.535 L -52.689,80.625 V 0 h -24.983 v 158.979 h 14.535 l 38.155,-80.398 v 80.398 H 0 Z"
               style="fill:#002d55;fill-opacity:1;fill-rule:nonzero;stroke:none"
               id="path439" />
          </g>
          <g
             id="g441"
             transform="translate(929.8213,1119.2125)"
             clip-path="url(#clipPath3061)">
            <path
               d="m 0,0 c -10.6,0 -19.383,3.102 -26.344,9.313 -7.574,7.568 -11.357,17.487 -11.357,29.75 v 84.487 c 0,12.263 3.783,22.179 11.357,29.751 6.961,6.207 15.744,9.311 26.344,9.311 10.902,0 19.682,-3.104 26.346,-9.311 7.568,-7.268 11.355,-17.186 11.355,-29.751 V 109.469 H 12.719 v 14.081 c 0,5.599 -1.061,9.386 -3.18,11.355 -1.969,1.817 -5.148,2.725 -9.539,2.725 -4.24,0 -7.346,-0.908 -9.311,-2.725 -2.271,-2.122 -3.408,-5.905 -3.408,-11.355 V 39.063 c 0,-5.45 1.137,-9.237 3.408,-11.355 1.965,-1.816 5.071,-2.726 9.311,-2.726 4.391,0 7.57,0.91 9.539,2.726 2.119,1.966 3.18,5.752 3.18,11.355 V 68.815 H 0.227 V 93.798 H 37.701 V 39.063 C 37.701,26.494 33.914,16.58 26.346,9.313 19.682,3.102 10.902,0 0,0"
               style="fill:#002d55;fill-opacity:1;fill-rule:nonzero;stroke:none"
               id="path443" />
          </g>
          <g
             id="g445"
             transform="translate(1013.1689,1255.026)"
             clip-path="url(#clipPath3057)">
            <path
               d="M 0,0 V -39.972 H 28.162 V -64.954 H 0 v -44.06 h 40.881 v -24.982 H -24.98 V 24.982 H 40.881 V 0 Z"
               style="fill:#002d55;fill-opacity:1;fill-rule:nonzero;stroke:none"
               id="path447" />
          </g>
          <g
             id="g449"
             transform="translate(1171.8721,1293.5529)">
            <path
               d="M 0,0 20.971,20.971 -0.064,42.005 Z"
               style="fill:#022d27;fill-opacity:1;fill-rule:nonzero;stroke:none"
               id="path451" />
          </g>
          <g
             id="g453"
             transform="translate(1171.8389,1177.7174)">
            <path
               d="M 0,0 21.001,21.001 0.034,41.969 Z"
               style="fill:#063d8e;fill-opacity:1;fill-rule:nonzero;stroke:none"
               id="path455" />
          </g>
          <g
             id="g457">
            <g
               id="g459" />
            <g
               id="g471">
              <g
                 clip-path="url(#clipPath463)"
                 id="g469">
                <g
                   transform="translate(1171.8721,1293.5529)"
                   id="g467">
                  <path
                     d="m 0,0 v 0 l -0.064,42.005 -57.883,57.883 0.012,-41.953 36.953,-36.953 -36.933,-36.934 20.982,-20.981 z"
                     style="fill:#00853e;fill-opacity:1;fill-rule:nonzero;stroke:none"
                     id="path465" />
                </g>
              </g>
            </g>
          </g>
          <g
             id="g473"
             transform="translate(1134.939,1256.6198)"
             clip-path="url(#clipPath3053)">
            <path
               d="m 0,0 -21.001,-21.001 0.019,41.982 z"
               style="fill:#095938;fill-opacity:1;fill-rule:nonzero;stroke:none"
               id="path475" />
          </g>
          <g
             id="g477">
            <g
               id="g479" />
            <g
               id="g491">
              <g
                 clip-path="url(#clipPath483)"
                 id="g489">
                <g
                   transform="translate(1171.8726,1219.6862)"
                   id="g487">
                  <path
                     d="m 0,0 v 0 l -0.034,-41.969 -57.916,-57.916 0.014,41.949 36.935,36.935 -36.934,36.933 21.001,21.002 z"
                     style="fill:#2cace3;fill-opacity:1;fill-rule:nonzero;stroke:none"
                     id="path485" />
                </g>
              </g>
            </g>
          </g>
          <g
             id="g493">
            <g
               id="g495" />
            <g
               id="g507">
              <g
                 clip-path="url(#clipPath499)"
                 id="g505">
                <g
                   transform="translate(1192.8428,1314.5236)"
                   id="g503">
                  <path
                     d="m 0,0 -20.971,-20.971 36.934,-36.933 -36.933,-36.933 20.967,-20.968 57.904,57.904 z"
                     style="fill:#0056a2;fill-opacity:1;fill-rule:nonzero;stroke:none"
                     id="path501" />
                </g>
              </g>
            </g>
          </g>
        </g>
      </g>
      <path
         d="m 26.618203,-33.485261 v -18.688 h 14.976 q 4.544,0 7.36,2.304 2.816,2.304 2.816,7.04 0,4.736 -2.816,7.04 -2.816,2.304 -7.36,2.304 z m -4.352,-22.4 v 45.696 h 4.352 v -19.584 h 15.936 q 3.072,0 5.568,-0.832 2.496,-0.896 4.288,-2.56 1.792,-1.728 2.752,-4.16 0.96,-2.432 0.96,-5.504 0,-3.072 -0.96,-5.504 -0.96,-2.432 -2.752,-4.096 -1.792,-1.728 -4.288,-2.56 -2.496,-0.896 -5.568,-0.896 z"
         style="font-weight:300;font-family:'Helvetica Neue';-inkscape-font-specification:'Helvetica Neue, Light'"
         id="path151" />
      <path
         d="m 75.825203,-40.781261 q 2.88,0 5.056,1.216 2.176,1.216 3.584,3.2 1.472,1.984 2.176,4.544 0.768,2.496 0.768,5.12 0,2.624 -0.768,5.184 -0.704,2.496 -2.176,4.48 -1.408,1.984 -3.584,3.2 -2.176,1.216 -5.056,1.216 -2.88,0 -5.056,-1.216 -2.176,-1.216 -3.648,-3.2 -1.408,-1.984 -2.176,-4.48 -0.704,-2.56 -0.704,-5.184 0,-2.624 0.704,-5.12 0.768,-2.56 2.176,-4.544 1.472,-1.984 3.648,-3.2 2.176,-1.216 5.056,-1.216 z m 0,-3.392 q -3.776,0 -6.72,1.408 -2.88,1.408 -4.864,3.776 -1.984,2.368 -3.008,5.568 -1.024,3.136 -1.024,6.72 0,3.584 1.024,6.784 1.024,3.136 3.008,5.504 1.984,2.368 4.864,3.776 2.944,1.3439999 6.72,1.3439999 3.776,0 6.656,-1.3439999 2.944,-1.408 4.928,-3.776 1.984,-2.368 3.008,-5.504 1.024,-3.2 1.024,-6.784 0,-3.584 -1.024,-6.72 -1.024,-3.2 -3.008,-5.568 -1.984,-2.368 -4.928,-3.776 -2.88,-1.408 -6.656,-1.408 z"
         style="font-weight:300;font-family:'Helvetica Neue';-inkscape-font-specification:'Helvetica Neue, Light'"
         id="path153" />
      <path
         d="m 94.170203,-43.213261 10.623997,33.024 h 4.416 l 8.064,-27.776 h 0.128 l 8.128,27.776 h 4.416 l 10.624,-33.024 h -4.288 l -8.448,28.288 h -0.128 l -8.064,-28.288 h -4.544 l -8.064,28.288 h -0.128 l -8.447997,-28.288 z"
         style="font-weight:300;font-family:'Helvetica Neue';-inkscape-font-specification:'Helvetica Neue, Light'"
         id="path155" />
      <path
         d="m 168.6172,-29.005261 h -21.376 q 0.256,-2.24 1.024,-4.352 0.832,-2.176 2.176,-3.776 1.344,-1.664 3.264,-2.624 1.92,-1.024 4.416,-1.024 2.432,0 4.352,1.024 1.92,0.96 3.264,2.624 1.344,1.6 2.048,3.712 0.768,2.112 0.832,4.416 z m -21.376,3.392 h 25.408 q 0.128,-3.456 -0.64,-6.784 -0.768,-3.392 -2.56,-5.952 -1.728,-2.624 -4.544,-4.224 -2.816,-1.6 -6.784,-1.6 -3.904,0 -6.784,1.536 -2.816,1.472 -4.608,3.968 -1.792,2.432 -2.688,5.568 -0.832,3.136 -0.832,6.4 0,3.52 0.832,6.72 0.896,3.136 2.688,5.568 1.792,2.368 4.608,3.776 2.88,1.3439999 6.784,1.3439999 6.272,0 9.664,-3.0719999 3.456,-3.072 4.736,-8.704 h -4.032 q -0.96,3.84 -3.456,6.144 -2.496,2.304 -6.912,2.304 -2.88,0 -4.928,-1.216 -2.048,-1.216 -3.392,-3.072 -1.344,-1.856 -1.984,-4.16 -0.576,-2.368 -0.576,-4.544 z"
         style="font-weight:300;font-family:'Helvetica Neue';-inkscape-font-specification:'Helvetica Neue, Light'"
         id="path157" />
      <path
         d="m 178.1232,-43.213261 v 33.024 h 4.032 v -17.6 q 0,-2.624 0.896,-4.8 0.896,-2.24 2.496,-3.84 1.664,-1.6 3.904,-2.432 2.24,-0.896 4.992,-0.768 v -4.032 q -4.48,-0.192 -7.744,1.984 -3.2,2.176 -4.736,6.208 h -0.128 v -7.744 z"
         style="font-weight:300;font-family:'Helvetica Neue';-inkscape-font-specification:'Helvetica Neue, Light'"
         id="path159" />
      <path
         d="m 220.79115,-29.005261 h -21.376 q 0.256,-2.24 1.024,-4.352 0.832,-2.176 2.176,-3.776 1.344,-1.664 3.264,-2.624 1.92,-1.024 4.416,-1.024 2.432,0 4.352,1.024 1.92,0.96 3.264,2.624 1.344,1.6 2.048,3.712 0.768,2.112 0.832,4.416 z m -21.376,3.392 h 25.408 q 0.128,-3.456 -0.64,-6.784 -0.768,-3.392 -2.56,-5.952 -1.728,-2.624 -4.544,-4.224 -2.816,-1.6 -6.784,-1.6 -3.904,0 -6.784,1.536 -2.816,1.472 -4.608,3.968 -1.792,2.432 -2.688,5.568 -0.832,3.136 -0.832,6.4 0,3.52 0.832,6.72 0.896,3.136 2.688,5.568 1.792,2.368 4.608,3.776 2.88,1.3439999 6.784,1.3439999 6.272,0 9.664,-3.0719999 3.456,-3.072 4.736,-8.704 h -4.032 q -0.96,3.84 -3.456,6.144 -2.496,2.304 -6.912,2.304 -2.88,0 -4.928,-1.216 -2.048,-1.216 -3.392,-3.072 -1.344,-1.856 -1.984,-4.16 -0.576,-2.368 -0.576,-4.544 z"
         style="font-weight:300;font-family:'Helvetica Neue';-inkscape-font-specification:'Helvetica Neue, Light'"
         id="path161" />
      <path
         d="m 259.3042,-10.189261 v -45.696 h -4.032 v 18.944 h -0.128 q -0.64,-1.792 -1.856,-3.136 -1.152,-1.344 -2.688,-2.24 -1.536,-0.96 -3.328,-1.408 -1.728,-0.448 -3.584,-0.448 -3.776,0 -6.592,1.408 -2.752,1.408 -4.608,3.84 -1.856,2.368 -2.752,5.568 -0.896,3.136 -0.896,6.656 0,3.52 0.896,6.72 0.896,3.136 2.752,5.568 1.856,2.368 4.608,3.776 2.816,1.3439999 6.592,1.3439999 1.792,0 3.584,-0.512 1.856,-0.5119999 3.456,-1.4079999 1.6,-0.96 2.816,-2.304 1.28,-1.344 1.92,-2.944 h 0.128 v 6.272 z m -26.432,-16.512 q 0,-2.56 0.576,-5.056 0.64,-2.56 1.92,-4.544 1.344,-1.984 3.392,-3.2 2.048,-1.28 4.928,-1.28 3.2,0 5.376,1.28 2.24,1.216 3.584,3.2 1.408,1.984 1.984,4.544 0.64,2.496 0.64,5.056 0,2.56 -0.64,5.12 -0.576,2.496 -1.984,4.48 -1.344,1.984 -3.584,3.264 -2.176,1.216 -5.376,1.216 -2.88,0 -4.928,-1.216 -2.048,-1.28 -3.392,-3.264 -1.28,-1.984 -1.92,-4.48 -0.576,-2.56 -0.576,-5.12 z"
         style="font-weight:300;font-family:'Helvetica Neue';-inkscape-font-specification:'Helvetica Neue, Light'"
         id="path163" />
      <path
         d="m 284.7482,-55.885261 v 45.696 h 3.712 v -6.272 h 0.128 q 1.408,3.456 4.544,5.312 3.2,1.8559999 7.232,1.8559999 3.776,0 6.528,-1.3439999 2.816,-1.408 4.672,-3.776 1.856,-2.432 2.752,-5.568 0.896,-3.2 0.896,-6.72 0,-3.52 -0.896,-6.656 -0.896,-3.2 -2.752,-5.568 -1.856,-2.432 -4.672,-3.84 -2.752,-1.408 -6.528,-1.408 -1.792,0 -3.584,0.448 -1.792,0.448 -3.328,1.408 -1.536,0.896 -2.752,2.24 -1.152,1.344 -1.792,3.136 h -0.128 v -18.944 z m 26.432,29.184 q 0,2.56 -0.64,5.12 -0.576,2.496 -1.92,4.48 -1.28,1.984 -3.328,3.264 -2.048,1.216 -4.928,1.216 -3.2,0 -5.44,-1.216 -2.176,-1.28 -3.584,-3.264 -1.344,-1.984 -1.984,-4.48 -0.576,-2.56 -0.576,-5.12 0,-2.56 0.576,-5.056 0.64,-2.56 1.984,-4.544 1.408,-1.984 3.584,-3.2 2.24,-1.28 5.44,-1.28 2.88,0 4.928,1.28 2.048,1.216 3.328,3.2 1.344,1.984 1.92,4.544 0.64,2.496 0.64,5.056 z"
         style="font-weight:300;font-family:'Helvetica Neue';-inkscape-font-specification:'Helvetica Neue, Light'"
         id="path165" />
      <path
         d="m 317.7862,-43.213261 13.184,32.896 -1.408,3.7119999 q -0.512,1.152 -0.96,2.112 -0.448,0.96 -1.088,1.6 -0.64,0.704 -1.536,1.088 -0.832,0.384 -2.176,0.384 -0.704,0 -1.408,-0.128 -0.64,-0.064 -1.344,-0.192 v 3.392 q 0.512,0.192 1.152,0.192 0.704,0.064 1.92,0.128 1.92,0 3.136,-0.384 1.28,-0.32 2.176,-1.15200002 0.96,-0.768 1.728,-2.17599998 0.768,-1.344 1.664,-3.456 l 14.336,-38.0159999 h -4.032 l -10.176,28.16 -10.88,-28.16 z"
         style="font-weight:300;font-family:'Helvetica Neue';-inkscape-font-specification:'Helvetica Neue, Light'"
         id="path167" />
      <path
         d="m 353.4912,-10.189261 h 5.376 v -6.784 h -5.376 z m 0,-25.216 h 5.376 v -6.784 h -5.376 z"
         style="font-weight:300;font-family:'Helvetica Neue';-inkscape-font-specification:'Helvetica Neue, Light'"
         id="path169" />
    </g>
  </g>
</svg>
