<?xml version="1.0" encoding="UTF-8" standalone="no"?>
<!-- Created with Inkscape (http://www.inkscape.org/) -->

<svg
   width="263.28268mm"
   height="96.948021mm"
   viewBox="0 0 263.28268 96.948021"
   version="1.1"
   id="svg4435"
   xmlns="http://www.w3.org/2000/svg"
   xmlns:svg="http://www.w3.org/2000/svg">
  <defs
     id="defs4432">
    <clipPath
       clipPathUnits="userSpaceOnUse"
       id="clipPath3093">
      <path
         d="m -645.3828,566.6603 h 3214.088 v -1880.658 h -3214.088 z"
         id="path3095"
         style="stroke-width:0.999998" />
    </clipPath>
    <clipPath
       clipPathUnits="userSpaceOnUse"
       id="clipPath3089">
      <path
         d="m -785.0625,519.6457 h 3214.088 v -1880.658 h -3214.088 z"
         id="path3091"
         style="stroke-width:0.999998" />
    </clipPath>
    <clipPath
       clipPathUnits="userSpaceOnUse"
       id="clipPath3085">
      <path
         d="m -943.6328,550.8132 h 3214.088 v -1880.658 h -3214.088 z"
         id="path3087"
         style="stroke-width:0.999998" />
    </clipPath>
    <clipPath
       clipPathUnits="userSpaceOnUse"
       id="clipPath3081">
      <path
         d="m -1023.8037,519.6457 h 3214.088 v -1880.658 h -3214.088 z"
         id="path3083"
         style="stroke-width:0.999998" />
    </clipPath>
    <clipPath
       clipPathUnits="userSpaceOnUse"
       id="clipPath3077">
      <path
         d="m -542.1279,761.4455 h 3214.088 v -1880.658 h -3214.088 z"
         id="path3079"
         style="stroke-width:0.999998" />
    </clipPath>
    <clipPath
       clipPathUnits="userSpaceOnUse"
       id="clipPath3073">
      <path
         d="m -675.2139,600.6496 h 3214.088 v -1880.658 h -3214.088 z"
         id="path3075"
         style="stroke-width:0.999998" />
    </clipPath>
    <clipPath
       clipPathUnits="userSpaceOnUse"
       id="clipPath3069">
      <path
         d="m -744.7529,709.4367 h 3214.088 v -1880.658 h -3214.088 z"
         id="path3071"
         style="stroke-width:0.999998" />
    </clipPath>
    <clipPath
       clipPathUnits="userSpaceOnUse"
       id="clipPath3065">
      <path
         d="m -871.6846,759.6281 h 3214.088 v -1880.658 h -3214.088 z"
         id="path3067"
         style="stroke-width:0.999998" />
    </clipPath>
    <clipPath
       clipPathUnits="userSpaceOnUse"
       id="clipPath3061">
      <path
         d="m -929.8213,761.4455 h 3214.088 v -1880.658 h -3214.088 z"
         id="path3063"
         style="stroke-width:0.999998" />
    </clipPath>
    <clipPath
       clipPathUnits="userSpaceOnUse"
       id="clipPath3057">
      <path
         d="m -1013.1689,625.632 h 3214.088 v -1880.658 h -3214.088 z"
         id="path3059"
         style="stroke-width:0.999998" />
    </clipPath>
    <clipPath
       clipPathUnits="userSpaceOnUse"
       id="clipPath463">
      <path
         d="m 1113.93,1393.44 h 57.94 v -136.82 h -57.94 z"
         id="path461" />
    </clipPath>
    <clipPath
       clipPathUnits="userSpaceOnUse"
       id="clipPath3053">
      <path
         d="m -1134.939,624.0382 h 3214.088 v -1880.658 h -3214.088 z"
         id="path3055"
         style="stroke-width:0.999998" />
    </clipPath>
    <clipPath
       clipPathUnits="userSpaceOnUse"
       id="clipPath483">
      <path
         d="m 1113.92,1256.62 h 57.95 V 1119.8 h -57.95 z"
         id="path481" />
    </clipPath>
    <clipPath
       clipPathUnits="userSpaceOnUse"
       id="clipPath499">
      <path
         d="m 1171.87,1314.52 h 78.87 v -115.8 h -78.87 z"
         id="path497" />
    </clipPath>
  </defs>
  <g
     id="layer1"
     transform="translate(48.582013,-110.09379)">
    <g
       id="g3925"
       transform="matrix(0.35277777,0,0,-0.35277777,-226.53261,601.8751)">
      <g
         id="g393"
         transform="translate(504.8291,1313.9977)">
        <path
           d="M 0,0 H 43.54 V 16.607 H 16.608 V 79.376 H 0 Z"
           style="fill:#002d55;fill-opacity:1;fill-rule:nonzero;stroke:none"
           id="path395" />
      </g>
      <g
         id="g397"
         transform="translate(561.1533,1313.9977)">
        <path
           d="M 0,0 H 45.278 V 16.607 H 16.608 V 32.47 H 43.323 V 46.906 H 16.608 v 15.863 h 28.67 V 79.376 H 0 Z"
           style="fill:#002d55;fill-opacity:1;fill-rule:nonzero;stroke:none"
           id="path399" />
      </g>
      <g
         id="g401"
         transform="translate(645.3828,1313.9977)"
         clip-path="url(#clipPath3093)">
        <path
           d="M 0,0 H 12.125 L 41.087,79.376 H 23.135 L 5.952,30.488 -11.12,79.376 h -17.842 z"
           style="fill:#002d55;fill-opacity:1;fill-rule:nonzero;stroke:none"
           id="path403" />
      </g>
      <g
         id="g405"
         transform="translate(696.8018,1313.9977)">
        <path
           d="M 0,0 H 45.278 V 16.607 H 16.608 V 32.47 H 43.323 V 46.906 H 16.608 v 15.863 h 28.67 V 79.376 H 0 Z"
           style="fill:#002d55;fill-opacity:1;fill-rule:nonzero;stroke:none"
           id="path407" />
      </g>
      <g
         id="g409"
         transform="translate(785.0625,1361.0123)"
         clip-path="url(#clipPath3089)">
        <path
           d="M 0,0 H -8.42 V 15.754 H 0 c 4.403,0 7.985,-3.484 7.985,-7.768 C 7.985,3.508 4.478,0 0,0 m 12.016,-47.015 h 18.941 l -19.585,33.252 0.444,0.244 C 19.631,-9.228 24.485,-0.987 24.485,7.986 24.485,21.427 13.501,32.362 0,32.362 H -25.028 V -47.015 H -8.42 v 30.408 h 3.169 z"
           style="fill:#002d55;fill-opacity:1;fill-rule:nonzero;stroke:none"
           id="path411" />
      </g>
      <g
         id="g413"
         transform="translate(849.835,1313.9977)">
        <path
           d="m 0,0 h 16.608 v 32.47 h 24.87 V 46.906 H 16.608 V 62.769 H 43.432 V 79.376 H 0 Z"
           style="fill:#002d55;fill-opacity:1;fill-rule:nonzero;stroke:none"
           id="path415" />
      </g>
      <g
         id="g417"
         transform="translate(943.6328,1329.8448)"
         clip-path="url(#clipPath3085)">
        <path
           d="m 0,0 c -13.026,0 -23.623,10.695 -23.623,23.841 0,13.146 10.597,23.841 23.623,23.841 12.923,0 23.841,-10.918 23.841,-23.841 C 23.841,10.918 12.923,0 0,0 m 0.108,64.181 c -22.243,0 -40.339,-18.097 -40.339,-40.34 0,-22.243 18.096,-40.34 40.339,-40.34 22.245,0 40.341,18.097 40.341,40.34 0,22.243 -18.096,40.34 -40.341,40.34"
           style="fill:#002d55;fill-opacity:1;fill-rule:nonzero;stroke:none"
           id="path419" />
      </g>
      <g
         id="g421"
         transform="translate(1023.8037,1361.0123)"
         clip-path="url(#clipPath3081)">
        <path
           d="M 0,0 H -8.42 V 15.754 H 0 c 4.403,0 7.985,-3.484 7.985,-7.768 C 7.985,3.508 4.478,0 0,0 m 12.016,-47.015 h 18.941 l -19.585,33.252 0.444,0.244 C 19.631,-9.228 24.485,-0.987 24.485,7.986 24.485,21.427 13.501,32.362 0,32.362 H -25.028 V -47.015 H -8.42 v 30.408 h 3.169 z"
           style="fill:#002d55;fill-opacity:1;fill-rule:nonzero;stroke:none"
           id="path423" />
      </g>
      <g
         id="g425"
         transform="translate(542.1279,1119.2125)"
         clip-path="url(#clipPath3077)">
        <path
           d="m 0,0 c -10.6,0 -19.383,3.102 -26.346,9.313 -7.572,7.568 -11.355,17.487 -11.355,29.75 v 84.487 c 0,12.263 3.783,22.179 11.355,29.751 6.963,6.207 15.746,9.311 26.346,9.311 10.9,0 19.68,-3.104 26.344,-9.311 7.57,-7.268 11.355,-17.186 11.355,-29.751 V 109.469 H 12.717 v 14.081 c 0,5.599 -1.061,9.386 -3.18,11.355 -1.969,1.817 -5.148,2.725 -9.537,2.725 -4.242,0 -7.346,-0.908 -9.313,-2.725 -2.271,-2.122 -3.406,-5.905 -3.406,-11.355 V 39.063 c 0,-5.45 1.135,-9.237 3.406,-11.355 1.967,-1.816 5.071,-2.726 9.313,-2.726 4.389,0 7.568,0.91 9.537,2.726 2.119,1.966 3.18,5.752 3.18,11.355 V 59.504 H 37.699 V 39.063 C 37.699,26.494 33.914,16.58 26.344,9.313 19.68,3.102 10.9,0 0,0"
           style="fill:#002d55;fill-opacity:1;fill-rule:nonzero;stroke:none"
           id="path427" />
      </g>
      <g
         id="g429"
         transform="translate(675.2139,1280.0084)"
         clip-path="url(#clipPath3073)">
        <path
           d="m 0,0 v -158.979 h -24.982 v 69.042 h -25.436 v -69.042 H -75.4 V 0 h 24.982 v -64.954 h 25.436 V 0 Z"
           style="fill:#002d55;fill-opacity:1;fill-rule:nonzero;stroke:none"
           id="path431" />
      </g>
      <g
         id="g433"
         transform="translate(744.7529,1171.2213)"
         clip-path="url(#clipPath3069)">
        <path
           d="M 0,0 -9.992,57.006 -19.986,0 Z m 4.314,-24.982 h -28.615 l -4.543,-25.209 h -25.435 l 31.795,158.978 H 2.498 L 34.295,-50.191 H 8.857 Z"
           style="fill:#002d55;fill-opacity:1;fill-rule:nonzero;stroke:none"
           id="path435" />
      </g>
      <g
         id="g437"
         transform="translate(871.6846,1121.0299)"
         clip-path="url(#clipPath3065)">
        <path
           d="M 0,0 H -14.535 L -52.689,80.625 V 0 h -24.983 v 158.979 h 14.535 l 38.155,-80.398 v 80.398 H 0 Z"
           style="fill:#002d55;fill-opacity:1;fill-rule:nonzero;stroke:none"
           id="path439" />
      </g>
      <g
         id="g441"
         transform="translate(929.8213,1119.2125)"
         clip-path="url(#clipPath3061)">
        <path
           d="m 0,0 c -10.6,0 -19.383,3.102 -26.344,9.313 -7.574,7.568 -11.357,17.487 -11.357,29.75 v 84.487 c 0,12.263 3.783,22.179 11.357,29.751 6.961,6.207 15.744,9.311 26.344,9.311 10.902,0 19.682,-3.104 26.346,-9.311 7.568,-7.268 11.355,-17.186 11.355,-29.751 V 109.469 H 12.719 v 14.081 c 0,5.599 -1.061,9.386 -3.18,11.355 -1.969,1.817 -5.148,2.725 -9.539,2.725 -4.24,0 -7.346,-0.908 -9.311,-2.725 -2.271,-2.122 -3.408,-5.905 -3.408,-11.355 V 39.063 c 0,-5.45 1.137,-9.237 3.408,-11.355 1.965,-1.816 5.071,-2.726 9.311,-2.726 4.391,0 7.57,0.91 9.539,2.726 2.119,1.966 3.18,5.752 3.18,11.355 V 68.815 H 0.227 V 93.798 H 37.701 V 39.063 C 37.701,26.494 33.914,16.58 26.346,9.313 19.682,3.102 10.902,0 0,0"
           style="fill:#002d55;fill-opacity:1;fill-rule:nonzero;stroke:none"
           id="path443" />
      </g>
      <g
         id="g445"
         transform="translate(1013.1689,1255.026)"
         clip-path="url(#clipPath3057)">
        <path
           d="M 0,0 V -39.972 H 28.162 V -64.954 H 0 v -44.06 h 40.881 v -24.982 H -24.98 V 24.982 H 40.881 V 0 Z"
           style="fill:#002d55;fill-opacity:1;fill-rule:nonzero;stroke:none"
           id="path447" />
      </g>
      <g
         id="g449"
         transform="translate(1171.8721,1293.5529)">
        <path
           d="M 0,0 20.971,20.971 -0.064,42.005 Z"
           style="fill:#022d27;fill-opacity:1;fill-rule:nonzero;stroke:none"
           id="path451" />
      </g>
      <g
         id="g453"
         transform="translate(1171.8389,1177.7174)">
        <path
           d="M 0,0 21.001,21.001 0.034,41.969 Z"
           style="fill:#063d8e;fill-opacity:1;fill-rule:nonzero;stroke:none"
           id="path455" />
      </g>
      <g
         id="g457">
        <g
           id="g459" />
        <g
           id="g471">
          <g
             clip-path="url(#clipPath463)"
             id="g469">
            <g
               transform="translate(1171.8721,1293.5529)"
               id="g467">
              <path
                 d="m 0,0 v 0 l -0.064,42.005 -57.883,57.883 0.012,-41.953 36.953,-36.953 -36.933,-36.934 20.982,-20.981 z"
                 style="fill:#00853e;fill-opacity:1;fill-rule:nonzero;stroke:none"
                 id="path465" />
            </g>
          </g>
        </g>
      </g>
      <g
         id="g473"
         transform="translate(1134.939,1256.6198)"
         clip-path="url(#clipPath3053)">
        <path
           d="m 0,0 -21.001,-21.001 0.019,41.982 z"
           style="fill:#095938;fill-opacity:1;fill-rule:nonzero;stroke:none"
           id="path475" />
      </g>
      <g
         id="g477">
        <g
           id="g479" />
        <g
           id="g491">
          <g
             clip-path="url(#clipPath483)"
             id="g489">
            <g
               transform="translate(1171.8726,1219.6862)"
               id="g487">
              <path
                 d="m 0,0 v 0 l -0.034,-41.969 -57.916,-57.916 0.014,41.949 36.935,36.935 -36.934,36.933 21.001,21.002 z"
                 style="fill:#2cace3;fill-opacity:1;fill-rule:nonzero;stroke:none"
                 id="path485" />
            </g>
          </g>
        </g>
      </g>
      <g
         id="g493">
        <g
           id="g495" />
        <g
           id="g507">
          <g
             clip-path="url(#clipPath499)"
             id="g505">
            <g
               transform="translate(1192.8428,1314.5236)"
               id="g503">
              <path
                 d="m 0,0 -20.971,-20.971 36.934,-36.933 -36.933,-36.933 20.967,-20.968 57.904,57.904 z"
                 style="fill:#0056a2;fill-opacity:1;fill-rule:nonzero;stroke:none"
                 id="path501" />
            </g>
          </g>
        </g>
      </g>
    </g>
  </g>
</svg>
